<svg viewBox="0 0 96 96" xmlns="http://www.w3.org/2000/svg" xmlns:xlink="http://www.w3.org/1999/xlink" id="Icons_WeightsUneven_M" overflow="hidden"><g id="Icons"><path d="M21.5 68.729C28.509 68.729 34 65.554 34 61.5L34 60.5 29.9 60.5 23 33.856 45.146 24.774C45.5203 25.1563 45.9674 25.4596 46.461 25.666 46.6379 25.7343 46.8193 25.7901 47.004 25.833L47.004 81 40 81C37.7909 81 36 82.7909 36 85L38 85C38 83.8954 38.8954 83 40 83L56 83C57.1046 83 58 83.8954 58 85L60 85C60 82.7909 58.2091 81 56 81L49 81 49 25.833C49.1759 25.7923 49.3489 25.7402 49.518 25.677 51.0243 25.0592 52.0058 23.59 52 21.962L72.572 13.525 66.1 38.5 62 38.5 62 39.5C62 43.554 67.491 46.729 74.5 46.729 81.509 46.729 87 43.554 87 39.5L87 38.5 82.9 38.5 76.058 12.1 78.106 11.259C78.6112 11.0358 78.8398 10.4454 78.6167 9.9402 78.402 9.45426 77.8449 9.22098 77.348 9.409L51.466 20.019C50.9363 19.0771 50.046 18.3915 49 18.12L49 9C49 8.44771 48.5523 8 48 8 47.4477 8 47 8.44771 47 9L47 18.122C44.9273 18.5786 43.6171 20.629 44.0737 22.7017 44.097 22.8076 44.1248 22.9125 44.157 23.016L17.088 34.116C16.5769 34.3256 16.3324 34.9099 16.542 35.421 16.7516 35.9321 17.3359 36.1766 17.847 35.967L19.647 35.228 13.1 60.5 9 60.5 9 61.5C9 65.554 14.491 68.729 21.5 68.729ZM84.8 40.5C83.833 42.875 79.509 44.729 74.5 44.729 69.491 44.729 65.169 42.875 64.2 40.5ZM80.84 38.5 68.162 38.5 74.49 14.093C74.49 14.0875 74.4945 14.083 74.5 14.083 74.5055 14.083 74.51 14.0875 74.51 14.093ZM47.24 20.125C47.4574 20.0386 47.6882 19.9909 47.922 19.984 47.9477 19.9908 47.9737 19.9962 48 20 48.03 20 48.056 19.985 48.085 19.983 49.1821 20.0381 50.0268 20.9721 49.9718 22.0692 49.9167 23.1663 48.9827 24.0111 47.8856 23.956 46.7884 23.9009 45.9437 22.9669 45.9988 21.8698 46.0376 21.0959 46.5224 20.415 47.241 20.125ZM21.51 36.093 27.838 60.5 15.162 60.5 21.49 36.093C21.49 36.0875 21.4945 36.083 21.5 36.083 21.5055 36.083 21.51 36.0875 21.51 36.093ZM31.8 62.5C30.833 64.875 26.509 66.729 21.5 66.729 16.491 66.729 12.169 64.875 11.2 62.5Z"/><rect x="24" y="86" width="48" height="2"/></g></svg>