<svg viewBox="0 0 96 96" xmlns="http://www.w3.org/2000/svg" xmlns:xlink="http://www.w3.org/1999/xlink" id="Icons_Influencer" overflow="hidden"><path d="M78.2 49.4C83.2 49.4 87.2 45.4 87.2 40.4 87.2 35.4 83.2 31.4 78.2 31.4 73.2 31.4 69.2 35.4 69.2 40.4 69.2 40.9 69.2 41.3 69.3 41.8L58.9 46.1C57 42.8 53.8 40.5 50 39.9L50 28.8C54.8 27.7 57.9 22.9 56.8 18 55.7 13.2 50.9 10.1 46 11.2 41.1 12.3 38.1 17.1 39.2 22 40 25.4 42.6 28 46 28.8L46 40C42.3 40.6 39.1 42.8 37.2 46.1L27.1 41.9C27.9 37 24.5 32.4 19.6 31.6 14.6 30.8 10 34.1 9.3 39 8.5 43.9 11.9 48.5 16.8 49.3 20.2 49.8 23.6 48.4 25.6 45.6L35.8 49.8C35.1 53.3 35.9 56.9 38 59.8L29.7 68.2C25.5 65.6 19.9 66.9 17.3 71.1 14.7 75.3 16 80.9 20.2 83.5 24.4 86.1 30 84.8 32.6 80.6 34.4 77.6 34.4 73.9 32.5 71L40.8 62.7C45.1 65.7 50.8 65.7 55 62.7L63.3 71C60.6 75.2 61.8 80.7 66 83.4 70.2 86.1 75.7 84.9 78.4 80.7 81.1 76.5 79.9 71 75.7 68.3 72.8 66.4 69 66.4 66 68.2L58 59.8C59.6 57.6 60.5 55 60.5 52.3 60.5 51.5 60.4 50.7 60.3 49.9L70.8 45.6C72.5 47.9 75.2 49.4 78.2 49.4ZM76.1 39.3C76.1 39.3 78.4 38.2 78.4 36.3 78.4 35.9 78.7 35.5 79.1 35.5 79.5 35.5 79.9 35.8 79.9 36.2 79.9 36.2 79.9 36.2 79.9 36.3 79.9 37.1 79.8 37.9 79.5 38.7 79.5 38.9 79.7 39.1 79.9 39.1L82.3 39.1C82.7 39.1 83.1 39.4 83.1 39.9 83.1 40.2 82.9 40.5 82.6 40.6 82.9 40.9 82.9 41.4 82.6 41.7 82.5 41.8 82.4 41.9 82.2 41.9 82.3 42 82.4 42.2 82.4 42.4 82.4 42.8 82.1 43.2 81.6 43.2L81.5 43.2C81.6 43.3 81.7 43.5 81.7 43.7 81.7 44.1 81.4 44.5 80.9 44.5L78.6 44.5C76.9 44.5 76.8 43.5 75.9 43.5L75.9 39.3ZM73.9 38.7 74.8 38.7C75.1 38.7 75.3 38.9 75.3 39.2L75.3 43.5C75.3 43.8 75.1 44 74.8 44L73.9 44 73.9 38.7ZM22.1 41.2 19.1 41.2 19.1 44.2 17.1 44.2 17.1 41.2 14.1 41.2 14.1 39.2 17.1 39.2 17.1 36.2 19.1 36.2 19.1 39.2 22.1 39.2 22.1 41.2ZM22 78.6C22 78.9 21.8 79.1 21.5 79.1L20.6 79.1 20.6 73.8 21.5 73.8C21.8 73.8 22 74 22 74.3L22 78.6ZM29.5 76.2C29.5 76.6 29.2 76.9 28.9 76.9 29 77 29.1 77.2 29.1 77.4 29.1 77.8 28.7 78.2 28.3 78.2 28.4 78.3 28.5 78.5 28.5 78.7 28.5 79.1 28.2 79.5 27.7 79.5L25.4 79.5C23.7 79.5 23.6 78.5 22.7 78.5L22.7 74.4C22.7 74.4 25 73.3 25 71.4 25 71 25.3 70.6 25.7 70.6 26.1 70.6 26.5 70.9 26.5 71.3 26.5 71.3 26.5 71.3 26.5 71.4 26.5 72.2 26.4 73 26.1 73.8 26.1 74 26.3 74.2 26.5 74.2L29 74.2C29.4 74.2 29.8 74.5 29.8 75 29.8 75.3 29.6 75.6 29.3 75.7 29.4 75.8 29.5 76 29.5 76.2ZM43.6 18.5C43.6 16.7 46.4 14.7 48.1 18 49.8 14.7 52.6 16.7 52.6 18.5 52.6 21.3 48.1 24.7 48.1 24.7 48.1 24.7 43.6 21.2 43.6 18.5ZM44.5 48.1C44.5 46.2 46.1 44.6 48 44.6 49.9 44.6 51.5 46.2 51.5 48.1 51.5 50 49.9 51.6 48 51.6 46.1 51.6 44.5 50.1 44.5 48.1L44.5 48.1ZM55 58.7 41 58.7 41 56C41 55.5 41.3 54.9 41.7 54.6 42.7 53.9 43.9 53.3 45.1 52.9 46 52.6 47 52.5 48 52.5 49 52.5 50 52.6 50.9 52.9 52.1 53.2 53.3 53.8 54.3 54.6 54.7 54.9 55 55.5 55 56L55 58.7ZM71.1 73.7C72.8 70.4 75.6 72.4 75.6 74.2 75.6 77 71.1 80.4 71.1 80.4 71.1 80.4 66.6 77 66.6 74.2 66.6 72.4 69.4 70.4 71.1 73.7Z"/></svg>